<?xml version="1.0" standalone="no"?>
<!DOCTYPE svg PUBLIC "-//W3C//DTD SVG 20010904//EN"
        "http://www.w3.org/TR/2001/REC-SVG-20010904/DTD/svg10.dtd">
<svg version="1.0" xmlns="http://www.w3.org/2000/svg"
     width="230.000000pt" height="230.000000pt" viewBox="0 0 230.000000 230.000000"
     preserveAspectRatio="xMidYMid meet" style="background-color: #FFFFFF">
    <g transform="translate(0.000000,230.000000) scale(0.100000,-0.100000)"
       fill="#286490" stroke="none">
        <path d="M1523 2276 c112 -46 201 -156 214 -263 l5 -48 87 0 c75 0 93 -4 144
-30 99 -49 172 -147 184 -245 5 -41 9 -49 30 -55 41 -10 73 -36 93 -74 19 -36
19 -35 20 352 l0 387 -417 0 -418 0 58 -24z"/>
        <path d="M379 2027 c-18 -12 -44 -38 -56 -56 l-23 -34 0 -781 c0 -742 1 -783
19 -816 50 -94 157 -123 239 -66 75 51 76 59 80 426 5 365 4 364 81 433 89 80
213 75 301 -13 27 -27 50 -61 58 -86 8 -29 12 -135 12 -348 0 -337 2 -351 59
-399 42 -35 95 -49 145 -37 54 12 87 38 114 91 23 44 23 45 19 379 -4 367 -8
399 -67 509 -108 201 -337 320 -561 291 -41 -5 -93 -16 -116 -24 -24 -8 -43
-12 -43 -8 -1 4 0 93 0 199 1 204 -8 264 -43 305 -53 61 -155 77 -218 35z"/>
    </g>
</svg>
